<?xml version="1.0" encoding="UTF-8"?>
<svg version="1.1" xmlns="http://www.w3.org/2000/svg" width="512" height="512">
<path d="M0 0 C1.27620209 -0.01043099 2.55240417 -0.02086198 3.86727905 -0.03160906 C5.27610499 -0.02296159 6.68492865 -0.013935 8.09375 -0.00457001 C9.59608566 -0.00917996 11.09841681 -0.01553352 12.60073853 -0.02347898 C16.72589446 -0.04018263 20.85068041 -0.03192135 24.97583771 -0.01953411 C29.42581188 -0.01049015 33.87572209 -0.0244501 38.32568359 -0.0354538 C47.04190467 -0.0532506 55.75798806 -0.04939387 64.47421455 -0.03780323 C71.55736548 -0.02877375 78.64047779 -0.02754281 85.72363281 -0.0318985 C86.73131903 -0.03251143 87.73900524 -0.03312436 88.7772274 -0.03375587 C90.82425182 -0.03503476 92.87127623 -0.03633161 94.91830063 -0.03764623 C114.11825091 -0.04905543 133.31812483 -0.03593299 152.51806259 -0.01444477 C168.99645497 0.00342652 185.47473465 0.0003225 201.953125 -0.01811981 C221.08385067 -0.03952051 240.21450939 -0.04795676 259.34524536 -0.03567076 C261.38478596 -0.03439655 263.42432657 -0.03313906 265.46386719 -0.0318985 C266.96915009 -0.03097285 266.96915009 -0.03097285 268.50484276 -0.03002849 C275.58039327 -0.02657319 282.65590137 -0.03240782 289.73144531 -0.04181671 C298.35289265 -0.05302918 306.9741943 -0.05001249 315.59562492 -0.02869374 C319.99537043 -0.01817318 324.39487293 -0.01407856 328.7946167 -0.02729034 C332.82138187 -0.03919935 336.8476785 -0.03267663 340.87440109 -0.01138014 C342.33191845 -0.00690771 343.7894753 -0.00919477 345.24696732 -0.01888329 C347.22711758 -0.03103758 349.20737857 -0.01618445 351.1875 0 C352.28771484 0.00064941 353.38792969 0.00129882 354.52148438 0.00196791 C359.44548959 0.80557022 362.55065694 3.41442595 365.93868637 6.95136452 C368.45499251 12.3517125 368.13082663 17.44757021 368.07476807 23.3353653 C368.07818577 24.64314505 368.08160347 25.9509248 368.08512473 27.29833424 C368.09405927 30.92205823 368.07808248 34.54530838 368.05801249 38.16897202 C368.04072972 42.07892321 368.04658477 45.98884795 368.04962158 49.8988266 C368.05171843 56.67103017 368.03917434 63.44307952 368.01667023 70.21524429 C367.98415438 80.00661677 367.97374364 89.79791472 367.96871826 99.58933534 C367.95996496 115.47543422 367.93334841 131.36145092 367.89550781 147.24750519 C367.85878865 162.67881611 367.83047642 178.11010471 367.81347656 193.5414505 C367.81242567 194.49272575 367.81137477 195.444001 367.81029204 196.42410277 C367.80507186 201.19639755 367.80001704 205.96869249 367.79504442 210.74098754 C367.75358128 250.32850409 367.68313187 289.9159289 367.59375 329.50336456 C368.37943863 329.65382233 369.16512726 329.80428009 369.97462463 329.95929718 C389.95717437 334.11024531 409.77845288 350.99747236 424.33984375 364.43695831 C426.3400506 366.27077014 428.38718238 368.01373824 430.46875 369.75336456 C440.43079885 378.4701573 448.83240799 388.82984947 456.59375 399.50336456 C457.67076172 400.90908722 457.67076172 400.90908722 458.76953125 402.34320831 C462.80911011 407.98566616 464.74878801 412.53191643 464.25390625 419.55023956 C463.00742781 425.12620229 460.06842191 429.05233857 456.59375 433.50336456 C455.91771729 434.38484161 455.91771729 434.38484161 455.22802734 435.28412628 C449.11851612 443.21245303 442.6046363 450.74515442 435.78125 458.06586456 C435.18376953 458.70805939 434.58628906 459.35025421 433.97070312 460.01190948 C408.17462501 487.24781831 370.44169365 510.69706163 332.17895508 512.68036652 C315.64288779 512.96455364 299.60917222 513.2169676 283.59375 508.50336456 C282.78083496 508.26730499 281.96791992 508.03124542 281.13037109 507.78803253 C257.53469838 500.71069964 236.81760077 488.07096387 218.36328125 471.91352081 C217.44933594 471.11816925 216.53539062 470.32281769 215.59375 469.50336456 C214.89310897 468.80380394 214.19246794 468.10424332 213.47059536 467.38348389 C209.50753027 464.79348188 206.43174896 464.95239294 201.79469299 465.01129913 C200.9085234 465.00662014 200.02235381 465.00194116 199.10933059 464.99712038 C196.13972994 464.98618688 193.17097661 465.00368056 190.20141602 465.02094269 C188.07250722 465.01875691 185.94359962 465.01476031 183.81469727 465.00908661 C179.23004168 465.00051803 174.64562011 465.00431065 170.06097603 465.01750946 C162.81278425 465.03782437 155.56482903 465.02787824 148.31663513 465.01325226 C131.621075 464.98420148 114.9255841 464.99495291 98.23001099 465.00595093 C82.93165283 465.01562093 67.63341763 465.01693234 52.33508056 464.98607016 C45.12864699 464.97268155 37.92256678 464.97867819 30.71615422 464.99943542 C26.23406753 465.00841157 21.75211755 465.00095612 17.27004242 464.98902321 C15.19074226 464.98688972 13.11142204 464.99162923 11.03215599 465.00372887 C8.19433198 465.01931238 5.35759412 465.01038731 2.51979065 464.99542999 C1.69634252 465.00591889 0.87289438 465.01640779 0.02449328 465.02721453 C-5.23927372 464.96540059 -8.29797891 464.08076412 -12.40625 460.50336456 C-16.03243932 455.97564909 -16.98606254 452.52011657 -16.90961456 446.84772491 C-16.91833521 445.71557981 -16.91833521 445.71557981 -16.92723203 444.56056309 C-16.94184215 442.02880217 -16.92794255 439.4980092 -16.91418457 436.96625519 C-16.91879309 435.13393661 -16.92514568 433.30162172 -16.93309355 431.46931458 C-16.94981667 426.43205518 -16.94152691 421.39509827 -16.92914867 416.35783768 C-16.92011273 410.92626377 -16.93406068 405.49474252 -16.94506836 400.06317902 C-16.96287371 389.4218885 -16.9590046 378.78071071 -16.9474178 368.13941574 C-16.93839169 359.4925748 -16.93715591 350.8457655 -16.94151306 342.1989212 C-16.94212599 340.96920609 -16.94273893 339.73949098 -16.94337043 338.47251177 C-16.94464931 335.97452735 -16.94594616 333.47654294 -16.9472608 330.97855854 C-16.95834706 308.21212657 -16.94684168 285.44575217 -16.92589041 262.67932999 C-16.90690782 241.89407939 -16.90860632 221.10892681 -16.92773438 200.32367706 C-16.9491506 176.97393801 -16.95757381 153.62425316 -16.94528532 130.27450562 C-16.9440111 127.78560639 -16.94275361 125.29670716 -16.94151306 122.80780792 C-16.94058741 120.97083178 -16.94058741 120.97083178 -16.93964306 119.09674501 C-16.93618643 110.45826433 -16.94202525 101.81981838 -16.95143127 93.18134308 C-16.9626388 82.65681981 -16.95963741 72.1324159 -16.9383083 61.60790634 C-16.92778116 56.23604765 -16.92370446 50.86438813 -16.93690491 45.49253082 C-16.94880007 40.57759328 -16.94231372 35.66304002 -16.9209947 30.74813747 C-16.91651643 28.9676066 -16.91882226 27.18704345 -16.92849785 25.40653324 C-16.940624 22.99022562 -16.92822627 20.57524221 -16.90961456 18.15900421 C-16.91897923 17.464152 -16.92834389 16.76929979 -16.93799233 16.05339146 C-16.86120595 11.08168498 -15.5976014 8.27752816 -12.40625 4.50336456 C-8.21681088 1.05793901 -5.39118966 0.00318219 0 0 Z M15.59375 32.50336456 C15.59375 164.50336456 15.59375 296.50336456 15.59375 432.50336456 C70.37375 432.50336456 125.15375 432.50336456 181.59375 432.50336456 C179.89872192 427.80475038 179.89872192 427.80475038 178.0078125 425.04242706 C175.40601956 420.3706994 175.74443113 415.67590803 176.59375 410.50336456 C178.32808286 406.35313647 180.83427394 403.03695107 183.59375 399.50336456 C184.04975586 398.91039581 184.50576172 398.31742706 184.97558594 397.70648956 C194.96019038 384.78755363 205.78489624 371.72270276 218.59375 361.50336456 C219.0774707 361.10730011 219.56119141 360.71123566 220.05957031 360.30316925 C255.89301411 330.97322809 289.12995735 321.95535808 335.59375 320.50336456 C335.59375 225.46336456 335.59375 130.42336456 335.59375 32.50336456 C229.99375 32.50336456 124.39375 32.50336456 15.59375 32.50336456 Z M227.65625 397.19086456 C226.95830322 397.8793045 226.26035645 398.56774445 225.54125977 399.2770462 C222.04948803 402.79141298 218.70398289 406.40770944 215.52734375 410.21039581 C214.93880615 410.91269318 214.35026855 411.61499054 213.74389648 412.33856964 C212.35238099 414.48440659 212.35238099 414.48440659 212.82080078 417.13031769 C219.78380699 438.50758248 251.44349489 458.7756387 270.64990234 468.54682159 C296.09123757 481.06618248 325.48607808 484.22708716 352.63671875 475.20307159 C364.85637454 470.83411781 376.05537042 465.05375627 386.59375 457.50336456 C387.1388623 457.11906281 387.68397461 456.73476105 388.24560547 456.33881378 C396.34725454 450.55328602 403.477465 443.89062868 410.53125 436.87836456 C411.32426514 436.09090851 412.11728027 435.30345245 412.93432617 434.49213409 C416.68058994 430.69958108 420.30389503 426.82160613 423.72265625 422.72992706 C424.30217041 422.0372171 424.88168457 421.34450714 425.47875977 420.63080597 C426.83257155 418.51346213 426.83257155 418.51346213 426.36279297 415.88056183 C419.65349013 395.14136127 389.02111418 375.23870716 370.51953125 365.46820831 C318.24864786 338.87560565 266.91904849 358.36266243 227.65625 397.19086456 Z " fill="#000000" transform="translate(32.40625,-0.5033645629882813)"/>
<path d="M0 0 C10.23906578 7.73254248 18.72711365 17.59665562 20.6875 30.6875 C22.11678455 48.13329299 19.50517553 61.04058775 8.03125 74.65234375 C0.02533375 83.28136197 -10.26078398 88.35475631 -21.96875 89.00390625 C-38.65548452 89.56319388 -50.64291019 85.89777041 -63.0625 74.375 C-73.05541038 63.81645319 -75.82689781 52.26922077 -75.73217773 38.15722656 C-75.32139743 24.03483761 -69.475381 12.95884274 -59.25 3.28125 C-42.59283172 -10.42061423 -18.05009418 -11.9794347 0 0 Z M-37.8984375 29.15625 C-41.96371677 33.94998972 -42.66921896 37.02772682 -42.58984375 43.1484375 C-42.03879717 48.19323015 -39.30738756 50.78736364 -35.6875 54.0625 C-31.10979761 56.26657893 -27.30697589 56.4846639 -22.3125 55.6875 C-17.47391452 53.35781069 -14.64218931 50.52608548 -12.3125 45.6875 C-11.5153361 40.69302411 -11.73342107 36.89020239 -13.9375 32.3125 C-17.29184879 28.60506187 -20.41688285 26.30563603 -25.1875 24.75 C-30.04398394 24.65287032 -34.2726464 25.7983745 -37.8984375 29.15625 Z " fill="#000000" transform="translate(379.3125,375.3125)"/>
<path d="M0 0 C1.05489624 -0.00935994 1.05489624 -0.00935994 2.13110352 -0.01890898 C4.47576936 -0.03479977 6.81938988 -0.02225106 9.1640625 -0.00964355 C10.84977828 -0.01506645 12.53548932 -0.02219005 14.22119141 -0.03088379 C18.79145963 -0.04910026 23.36136618 -0.04205658 27.93164062 -0.02936745 C32.71745774 -0.01923109 37.50324416 -0.02863489 42.2890625 -0.03491211 C50.32557731 -0.04218666 58.36194503 -0.03260586 66.3984375 -0.0135498 C75.68597197 0.00821857 84.97315519 0.00116706 94.26068115 -0.02085543 C102.23877974 -0.0390149 110.21677267 -0.04156507 118.19488525 -0.03110075 C122.95810706 -0.02486883 127.72116384 -0.02402189 132.484375 -0.0372467 C136.96279317 -0.04881255 141.44075904 -0.04076615 145.91912842 -0.01766968 C147.56141408 -0.0123865 149.20373788 -0.01388971 150.8460083 -0.02272034 C153.09055875 -0.03367555 155.33366615 -0.01991476 157.578125 0 C158.83318848 0.0015081 160.08825195 0.0030162 161.38134766 0.00457001 C166.5664884 0.77048389 169.61909387 3.27638864 173.1640625 7.00793457 C175.56209825 12.17293466 175.54287785 16.90816337 174.7890625 22.50793457 C172.47916652 27.48309515 169.50950231 29.82698187 164.7890625 32.50793457 C161.38134766 33.01129913 161.38134766 33.01129913 157.578125 33.01586914 C156.52322876 33.02522908 156.52322876 33.02522908 155.44702148 33.03477812 C153.10235564 33.05066891 150.75873512 33.0381202 148.4140625 33.0255127 C146.72834672 33.03093559 145.04263568 33.03805919 143.35693359 33.04675293 C138.78666537 33.0649694 134.21675882 33.05792572 129.64648438 33.04523659 C124.86066726 33.03510023 120.07488084 33.04450404 115.2890625 33.05078125 C107.25254769 33.0580558 99.21617997 33.048475 91.1796875 33.02941895 C81.89215303 33.00765057 72.60496981 33.01470208 63.31744385 33.03672457 C55.33934526 33.05488404 47.36135233 33.05743421 39.38323975 33.04696989 C34.62001794 33.04073798 29.85696116 33.03989103 25.09375 33.05311584 C20.61533183 33.06468169 16.13736596 33.05663529 11.65899658 33.03353882 C10.01671092 33.02825564 8.37438712 33.02975885 6.7321167 33.03858948 C4.48756625 33.04954469 2.24445885 33.0357839 0 33.01586914 C-1.25506348 33.01436104 -2.51012695 33.01285294 -3.80322266 33.01129913 C-8.9883634 32.24538525 -12.04096887 29.7394805 -15.5859375 26.00793457 C-17.98397325 20.84293448 -17.96475285 16.10770577 -17.2109375 10.50793457 C-13.71687306 2.98225731 -8.11362412 0.00974945 0 0 Z " fill="#000000" transform="translate(129.2109375,191.4920654296875)"/>
<path d="M0 0 C1.05489624 -0.00935994 1.05489624 -0.00935994 2.13110352 -0.01890898 C4.47576936 -0.03479977 6.81938988 -0.02225106 9.1640625 -0.00964355 C10.84977828 -0.01506645 12.53548932 -0.02219005 14.22119141 -0.03088379 C18.79145963 -0.04910026 23.36136618 -0.04205658 27.93164062 -0.02936745 C32.71745774 -0.01923109 37.50324416 -0.02863489 42.2890625 -0.03491211 C50.32557731 -0.04218666 58.36194503 -0.03260586 66.3984375 -0.0135498 C75.68597197 0.00821857 84.97315519 0.00116706 94.26068115 -0.02085543 C102.23877974 -0.0390149 110.21677267 -0.04156507 118.19488525 -0.03110075 C122.95810706 -0.02486883 127.72116384 -0.02402189 132.484375 -0.0372467 C136.96279317 -0.04881255 141.44075904 -0.04076615 145.91912842 -0.01766968 C147.56141408 -0.0123865 149.20373788 -0.01388971 150.8460083 -0.02272034 C153.09055875 -0.03367555 155.33366615 -0.01991476 157.578125 0 C158.83318848 0.0015081 160.08825195 0.0030162 161.38134766 0.00457001 C166.5664884 0.77048389 169.61909387 3.27638864 173.1640625 7.00793457 C175.56209825 12.17293466 175.54287785 16.90816337 174.7890625 22.50793457 C172.47916652 27.48309515 169.50950231 29.82698187 164.7890625 32.50793457 C161.38134766 33.01129913 161.38134766 33.01129913 157.578125 33.01586914 C156.52322876 33.02522908 156.52322876 33.02522908 155.44702148 33.03477812 C153.10235564 33.05066891 150.75873512 33.0381202 148.4140625 33.0255127 C146.72834672 33.03093559 145.04263568 33.03805919 143.35693359 33.04675293 C138.78666537 33.0649694 134.21675882 33.05792572 129.64648438 33.04523659 C124.86066726 33.03510023 120.07488084 33.04450404 115.2890625 33.05078125 C107.25254769 33.0580558 99.21617997 33.048475 91.1796875 33.02941895 C81.89215303 33.00765057 72.60496981 33.01470208 63.31744385 33.03672457 C55.33934526 33.05488404 47.36135233 33.05743421 39.38323975 33.04696989 C34.62001794 33.04073798 29.85696116 33.03989103 25.09375 33.05311584 C20.61533183 33.06468169 16.13736596 33.05663529 11.65899658 33.03353882 C10.01671092 33.02825564 8.37438712 33.02975885 6.7321167 33.03858948 C4.48756625 33.04954469 2.24445885 33.0357839 0 33.01586914 C-1.25506348 33.01436104 -2.51012695 33.01285294 -3.80322266 33.01129913 C-8.9883634 32.24538525 -12.04096887 29.7394805 -15.5859375 26.00793457 C-17.98397325 20.84293448 -17.96475285 16.10770577 -17.2109375 10.50793457 C-13.71687306 2.98225731 -8.11362412 0.00974945 0 0 Z " fill="#000000" transform="translate(129.2109375,127.4920654296875)"/>
<path d="M0 0 C1.33285034 -0.01051392 1.33285034 -0.01051392 2.69262695 -0.02124023 C5.6183229 -0.03878886 8.54304489 -0.02720857 11.46875 -0.01367188 C13.50846542 -0.01636769 15.54817959 -0.02025085 17.58789062 -0.02526855 C21.85819765 -0.03115936 26.1281695 -0.02261394 30.3984375 -0.00390625 C35.86619751 0.01888287 41.33317211 0.00575757 46.80090332 -0.01819611 C51.01145319 -0.03266525 55.22181752 -0.02804293 59.43237305 -0.01768494 C61.44816176 -0.01502075 63.46396743 -0.01827656 65.47973633 -0.02760315 C68.29944337 -0.03778699 71.11788682 -0.02224194 73.9375 0 C74.76677002 -0.00809692 75.59604004 -0.01619385 76.45043945 -0.02453613 C81.75936306 0.05286148 84.73551987 1.03808214 88.96875 4.51757812 C92.59708663 8.33687985 93.27875458 11.40036819 93.46875 16.51757812 C93.27875458 21.63478806 92.59708663 24.6982764 88.96875 28.51757812 C83.89454676 32.68831046 80.22694792 33.0965659 73.9375 33.03515625 C73.04893311 33.04216553 72.16036621 33.0491748 71.24487305 33.05639648 C68.3191771 33.07394511 65.39445511 33.06236482 62.46875 33.04882812 C60.42903458 33.05152394 58.38932041 33.0554071 56.34960938 33.0604248 C52.07930235 33.06631561 47.8093305 33.05777019 43.5390625 33.0390625 C38.07130249 33.01627338 32.60432789 33.02939868 27.13659668 33.05335236 C22.92604681 33.0678215 18.71568248 33.06319918 14.50512695 33.05284119 C12.48933824 33.050177 10.47353257 33.05343281 8.45776367 33.0627594 C5.63805663 33.07294324 2.81961318 33.05739819 0 33.03515625 C-0.82927002 33.04325317 -1.65854004 33.0513501 -2.51293945 33.05969238 C-7.82186306 32.98229477 -10.79801987 31.99707411 -15.03125 28.51757812 C-18.65958663 24.6982764 -19.34125458 21.63478806 -19.53125 16.51757812 C-19.34125458 11.40036819 -18.65958663 8.33687985 -15.03125 4.51757812 C-9.95704676 0.34684579 -6.28944792 -0.06140965 0 0 Z " fill="#000000" transform="translate(131.03125,255.482421875)"/>
</svg>