<svg xmlns="http://www.w3.org/2000/svg" viewBox="0 0 483 153.65"><path d="M460.95 0v115.24h-13.51V0h13.51zM187.66 36.63c-11.48-.73-21.49 7.74-22.66 19.18h-.66v-17.4h-13.53v76.83h13.52V67.39c0-12.94 6.89-18.86 18.44-18.86 13.22 0 19.13 6.55 19.13 19.55v47.16h13.51V66.32c-.02-18.34-10.39-29.68-27.75-29.68zm-82.71 76.54h-.44L81.05 38.41H67.04l24.83 76.83h12.43l-12.68 38.41h13.5l37.2-115.24h-14l-23.38 74.76zm296.63 0h-.44l-23.46-74.76h-14.01l24.83 76.83h12.43l-12.68 38.41h13.49l37.2-115.24h-14.01l-23.36 74.76zM28.14 76.83l33.35-38.42H45.05L13.94 75.49h-.43V0H0v115.24h13.52v-37.7h12.84l25.97 37.7h15.66L41.1 76.83H28.14zm303.54-21h-.66V38.42H317.5v76.82h13.52V67.25c0-12.94 7.34-17.67 19.91-17.67 2.82-.03 5.63.28 8.38.9V37.42c-2.08-.62-4.24-.9-6.41-.81-11.07-.29-20.41 8.17-21.22 19.21zM286.62 0h13.51v115.24h-13.51v-17.4h-.65c-1.29 10.72-9.52 19.18-25.11 19.18-19.02 0-32.53-15.09-32.53-40.19s13.51-40.19 32.53-40.19c15.59 0 23.82 8.45 25.11 19.18h.65V0zm0 66.68c0-12.94-9.76-18.15-21.88-18.15-12.77 0-22.32 7.94-22.32 28.3s9.55 28.3 22.32 28.3c12.11 0 21.88-5.22 21.88-18.15v-20.3zm180.37 40.44v.91h2.45v7.21h1.15v-7.2h2.45v-.91h-6.06zm13.52 0-2.02 8.01h-.02l-1.92-8.01h-2.22l-.23 8.12h1.09l.24-8.01h.02l1.99 8.01h2.03l2.12-8.01h.02l.24 8.01H483l-.27-8.11h-2.22z" style="fill:#ff462d"/></svg>